<svg width="76" height="60" viewBox="0 0 76 60" fill="none" xmlns="http://www.w3.org/2000/svg">
<path d="M23.3474 22.4813C23.3474 23.4282 22.9713 24.3362 22.3018 25.0057C21.6323 25.6752 20.7242 26.0513 19.7774 26.0513C18.8306 26.0513 17.9225 25.6752 17.253 25.0057C16.5835 24.3362 16.2074 23.4282 16.2074 22.4813C16.2074 21.5345 16.5835 20.6265 17.253 19.957C17.9225 19.2875 18.8306 18.9114 19.7774 18.9114C20.7242 18.9114 21.6323 19.2875 22.3018 19.957C22.9713 20.6265 23.3474 21.5345 23.3474 22.4813ZM28.7643 15.3604C31.5909 14.5535 34.5165 14.1466 37.456 14.1514C40.6262 14.1514 43.6583 14.6131 46.4667 15.4508C47.0669 15.6164 47.708 15.5402 48.2526 15.2385C48.7972 14.9369 49.202 14.4339 49.3801 13.8373C49.5582 13.2408 49.4954 12.5982 49.2053 12.0474C48.9152 11.4965 48.4208 11.0813 47.8281 10.8908C44.4618 9.8903 40.9678 9.3852 37.456 9.39135C33.9622 9.39135 30.5969 9.88163 27.4505 10.7813C26.8433 10.9555 26.3301 11.3638 26.0239 11.9164C25.7178 12.4689 25.6436 13.1205 25.8178 13.7277C25.9921 14.3349 26.4004 14.8481 26.9529 15.1543C27.5055 15.4605 28.157 15.5346 28.7643 15.3604Z" fill="white"/>
<path fill-rule="evenodd" clip-rule="evenodd" d="M37.456 0C23.2855 0 10.938 8.11104 7.37278 19.635H4.75478C4.06082 19.6358 3.37542 19.7882 2.74659 20.0818C2.11777 20.3753 1.56073 20.8028 1.11451 21.3343C0.668287 21.8658 0.343671 22.4884 0.163403 23.1585C-0.0168643 23.8286 -0.0484226 24.5301 0.0709392 25.2137L1.27998 32.1633C1.5681 33.8201 2.43178 35.322 3.7188 36.4044C5.00583 37.4868 6.63359 38.0802 8.31526 38.08H9.56714C10.9951 40.5219 12.842 42.7353 15.0173 44.6583L11.5473 56.4488C11.443 56.8038 11.4228 57.1783 11.4885 57.5424C11.5542 57.9066 11.7038 58.2504 11.9256 58.5466C12.1474 58.8428 12.4352 59.0831 12.7662 59.2486C13.0971 59.4142 13.4621 59.5002 13.8321 59.5H23.3521C23.8432 59.5001 24.3223 59.3482 24.7236 59.0653C25.125 58.7824 25.4291 58.3822 25.5941 57.9197L27.8884 51.4889C30.911 52.3124 34.124 52.7598 37.4607 52.7598C40.8261 52.7598 44.0676 52.3076 47.114 51.4651L49.6987 57.9958C49.8743 58.4396 50.1793 58.8202 50.574 59.0885C50.9687 59.3567 51.4349 59.5001 51.9121 59.5H61.4321C61.8035 59.4996 62.1696 59.4123 62.5012 59.2451C62.8328 59.0779 63.1207 58.8354 63.3418 58.5371C63.5629 58.2387 63.7112 57.8927 63.7746 57.5268C63.8381 57.1609 63.8151 56.7852 63.7074 56.4298L60.085 44.5012C65.2829 39.8317 68.5673 33.4723 68.5673 26.3799C68.5673 25.6897 68.534 24.9995 68.4721 24.3284C69.7145 23.8048 70.8902 23.0622 71.8279 22.2149C73.3273 23.6715 75.7073 23.6715 75.7073 20.23C75.7073 21.2915 73.3273 21.2915 73.513 20.1062C73.7129 19.7241 73.8572 19.3154 73.9414 18.8924C74.0533 18.3411 74.0238 17.7704 73.8557 17.2336C73.6876 16.6968 73.3863 16.2112 72.9799 15.8222C72.5512 15.3804 71.9872 15.0946 71.3774 15.01C70.7677 14.9255 70.1472 15.0472 69.6145 15.3558C69.1248 15.6264 68.707 16.0106 68.3964 16.4761C68.0859 16.9415 67.8914 17.4747 67.8295 18.0309C67.7153 19.1876 68.2199 20.3157 69.3527 21.1439C68.9596 21.4157 68.5476 21.6591 68.1199 21.8722C65.5781 9.19156 52.4881 0 37.456 0ZM11.5235 22.5291C13.6893 12.6949 24.2184 4.76 37.456 4.76C52.4309 4.76 63.8073 14.8226 63.8073 26.3799C63.8073 32.349 60.8371 37.8515 55.8581 41.8404C55.4881 42.1381 55.2155 42.5396 55.0756 42.9935C54.9356 43.4473 54.9346 43.9326 55.0727 44.387L58.2143 54.74H53.5257L50.7173 47.6619C50.4912 47.0915 50.0535 46.6305 49.4957 46.3751C48.9378 46.1196 48.3028 46.0895 47.7233 46.291C44.5769 47.3858 41.1069 47.9998 37.456 47.9998C33.962 48.0088 30.4913 47.4312 27.1887 46.291C26.5958 46.0849 25.9456 46.1214 25.3795 46.3924C24.8134 46.6634 24.3773 47.147 24.1661 47.738L21.6671 54.74H17.007L20.0201 44.506C20.1545 44.05 20.1493 43.5641 20.0051 43.111C19.8608 42.658 19.5842 42.2585 19.2109 41.9642C16.6641 39.993 14.5783 37.4897 13.0991 34.629C12.9009 34.2358 12.5976 33.9052 12.2228 33.6741C11.848 33.443 11.4164 33.3205 10.9761 33.32H8.3105C7.75072 33.3194 7.20907 33.1215 6.78075 32.7611C6.35243 32.4007 6.06486 31.9008 5.96858 31.3494L4.75954 24.3998H9.20062C9.74301 24.3993 10.269 24.2136 10.6914 23.8734C11.1139 23.5332 11.4074 23.0589 11.5235 22.5291ZM71.5995 18.4498C71.5147 18.8116 71.3559 19.152 71.133 19.4494C71.0618 19.4122 70.9919 19.3725 70.9235 19.3304C70.2286 18.902 70.1762 18.4974 70.2 18.2689C70.2234 18.0981 70.2859 17.935 70.3824 17.7922C70.479 17.6494 70.6071 17.5307 70.7569 17.4454C70.9902 17.3169 71.1377 17.3454 71.2948 17.5025C71.4272 17.6176 71.5255 17.7667 71.5792 17.9337C71.6329 18.1006 71.6399 18.2791 71.5995 18.4498Z" fill="white"/>
</svg>
