<svg width="69" height="56" viewBox="0 0 69 56" fill="none" xmlns="http://www.w3.org/2000/svg">
<path d="M15 54L2.572 41.572C2.2062 41.2067 2.00046 40.711 2 40.194V23.125C2 21.8321 2.51362 20.5921 3.42786 19.6779C4.3421 18.7636 5.58207 18.25 6.875 18.25V18.25C8.16793 18.25 9.4079 18.7636 10.3221 19.6779C11.2364 20.5921 11.75 21.8321 11.75 23.125V37.75" stroke="#FC632D" stroke-width="4" stroke-linecap="round" stroke-linejoin="round"/>
<path d="M15 40.9999L12.2115 38.2114C12.065 38.0651 11.9488 37.8913 11.8696 37.7C11.7904 37.5087 11.7498 37.3037 11.75 37.0966C11.7505 36.8044 11.8321 36.518 11.986 36.2695C12.1398 36.021 12.3596 35.8202 12.621 35.6894L14.0608 34.9711C15.2805 34.3613 16.6612 34.1505 18.0074 34.3686C19.3535 34.5868 20.597 35.2228 21.5618 36.1866L24.4705 39.0954C25.6896 40.3141 26.3746 41.9671 26.375 43.6909V53.9999" stroke="#FC632D" stroke-width="4" stroke-linecap="round" stroke-linejoin="round"/>
<path d="M54 54L66.428 41.572C66.7938 41.2067 66.9995 40.711 67 40.194V23.125C67 21.8321 66.4864 20.5921 65.5721 19.6779C64.6579 18.7636 63.4179 18.25 62.125 18.25V18.25C60.8321 18.25 59.5921 18.7636 58.6779 19.6779C57.7636 20.5921 57.25 21.8321 57.25 23.125V37.75" stroke="#FC632D" stroke-width="4" stroke-linecap="round" stroke-linejoin="round"/>
<path d="M54 40.9999L56.7885 38.2114C56.9349 38.065 57.0509 37.8912 57.1301 37.6999C57.2093 37.5086 57.25 37.3037 57.25 37.0966V37.0966C57.25 36.5019 56.912 35.9591 56.379 35.6894L54.9393 34.9711C53.7195 34.3613 52.3388 34.1505 50.9926 34.3686C49.6465 34.5868 48.403 35.2228 47.4382 36.1866L44.5295 39.0954C43.3104 40.3141 42.6254 41.9671 42.625 43.6909V53.9999" stroke="#FC632D" stroke-width="4" stroke-linecap="round" stroke-linejoin="round"/>
<path d="M29.0823 28H39.9177V20.4177H47.5V9.58225H39.9177V2H29.0823V9.58225H21.5V20.4177H29.0823V28Z" stroke="#FC632D" stroke-width="4" stroke-linecap="round" stroke-linejoin="round"/>
</svg>
