<svg width="66" height="66" viewBox="0 0 66 66" fill="none" xmlns="http://www.w3.org/2000/svg">
<path d="M56.202 9.79808C50.0484 3.64453 41.7024 0.1875 33 0.1875C24.2976 0.1875 15.9516 3.64453 9.79802 9.79808C3.64447 15.9516 0.187439 24.2976 0.187439 33.0001C0.187439 41.7025 3.64447 50.0485 9.79802 56.2021C15.9516 62.3556 24.2976 65.8126 33 65.8126C41.7024 65.8126 50.0484 62.3556 56.202 56.2021C62.3555 50.0485 65.8126 41.7025 65.8126 33.0001C65.8126 24.2976 62.3555 15.9516 56.202 9.79808V9.79808ZM45.259 42.1656C47.2411 39.5209 48.3125 36.305 48.3125 33.0001C48.3125 29.6951 47.2411 26.4792 45.259 23.8346L54.5857 14.5079C59.0067 19.6547 61.4375 26.2151 61.4375 33.0001C61.4375 39.785 59.0067 46.3454 54.5857 51.4922L45.259 42.1656ZM22.0625 33.0001C22.0625 30.8368 22.704 28.7222 23.9058 26.9235C25.1076 25.1249 26.8158 23.723 28.8144 22.8951C30.813 22.0673 33.0121 21.8507 35.1338 22.2727C37.2555 22.6948 39.2043 23.7365 40.734 25.2661C42.2636 26.7957 43.3053 28.7446 43.7273 30.8663C44.1494 32.9879 43.9328 35.1871 43.1049 37.1857C42.2771 39.1842 40.8752 40.8924 39.0766 42.0943C37.2779 43.2961 35.1632 43.9376 33 43.9376C30.1002 43.9343 27.3201 42.7809 25.2697 40.7304C23.2192 38.6799 22.0658 35.8999 22.0625 33.0001V33.0001ZM51.4922 11.4144L42.1655 20.741C39.5209 18.7589 36.305 17.6876 33 17.6876C29.695 17.6876 26.4791 18.7589 23.8345 20.741L14.5078 11.4144C19.6547 6.99336 26.2151 4.56257 33 4.56257C39.7849 4.56257 46.3453 6.99336 51.4922 11.4144V11.4144ZM11.4143 14.5079L20.741 23.8346C18.7589 26.4792 17.6875 29.6951 17.6875 33.0001C17.6875 36.305 18.7589 39.5209 20.741 42.1656L11.4143 51.4922C6.9933 46.3454 4.56251 39.785 4.56251 33.0001C4.56251 26.2151 6.9933 19.6547 11.4143 14.5079V14.5079ZM14.5078 54.5858L23.8345 45.2591C26.4791 47.2412 29.695 48.3126 33 48.3126C36.305 48.3126 39.5209 47.2412 42.1655 45.2591L51.4922 54.5858C46.3453 59.0068 39.7849 61.4376 33 61.4376C26.2151 61.4376 19.6547 59.0068 14.5078 54.5858V54.5858Z" fill="white"/>
</svg>
