<svg width="60" height="69" viewBox="0 0 60 69" fill="none" xmlns="http://www.w3.org/2000/svg">
<path d="M18.5914 6.81428C14.5097 7.93921 10.4556 9.16242 6.43288 10.4829C6.06555 10.6018 5.73902 10.8216 5.49049 11.1171C5.24196 11.4126 5.08142 11.772 5.02716 12.1543C2.65288 29.97 8.13859 42.9686 14.6829 51.5314C17.4536 55.1931 20.7575 58.4189 24.4843 61.1014C25.9672 62.1471 27.2786 62.9014 28.3114 63.3857C28.8257 63.63 29.2457 63.7928 29.5672 63.8914C29.7077 63.9407 29.8527 63.9766 30 63.9985C30.1456 63.9749 30.289 63.939 30.4286 63.8914C30.7543 63.7928 31.1743 63.63 31.6886 63.3857C32.7172 62.9014 34.0329 62.1428 35.5157 61.1014C39.2425 58.4188 42.5463 55.193 45.3171 51.5314C51.8614 42.9728 57.3471 29.97 54.9729 12.1543C54.9191 11.7718 54.7587 11.4122 54.5101 11.1166C54.2615 10.821 53.9347 10.6014 53.5671 10.4829C50.7771 9.57 46.0671 8.08285 41.4086 6.81857C36.6514 5.52857 32.2757 4.57285 30 4.57285C27.7286 4.57285 23.3486 5.52857 18.5914 6.81857V6.81428ZM17.4514 2.4C22.1014 1.13571 27.0429 0 30 0C32.9571 0 37.8986 1.13571 42.5486 2.4C47.3057 3.68571 52.1014 5.20714 54.9214 6.12857C56.1005 6.51793 57.1458 7.23199 57.9372 8.18871C58.7287 9.14544 59.2342 10.306 59.3957 11.5371C61.95 30.7243 56.0229 44.9443 48.8314 54.3514C45.7819 58.3756 42.1457 61.9194 38.0443 64.8643C36.6261 65.8833 35.1235 66.7794 33.5529 67.5428C32.3529 68.1085 31.0629 68.5714 30 68.5714C28.9372 68.5714 27.6514 68.1085 26.4472 67.5428C24.8765 66.7794 23.3739 65.8833 21.9557 64.8643C17.8544 61.9193 14.2182 58.3755 11.1686 54.3514C3.97716 44.9443 -1.94998 30.7243 0.604309 11.5371C0.765825 10.306 1.27135 9.14544 2.06281 8.18871C2.85427 7.23199 3.89956 6.51793 5.07859 6.12857C9.17227 4.78632 13.2978 3.5431 17.4514 2.4Z" fill="white"/>
</svg>
