<svg width="64" height="65" viewBox="0 0 64 65" fill="none" xmlns="http://www.w3.org/2000/svg">
<path d="M30.8162 14.3467L31.5062 7.24001C31.7792 4.38412 34.4461 2.44619 37.14 3.14216C41.1928 4.19212 44.0397 7.95698 44.0397 12.2738V21.3785C44.0397 23.4034 44.0397 24.4174 44.4777 25.1583C44.7267 25.5813 45.0687 25.9383 45.4766 26.1933C46.1966 26.6463 47.1776 26.6463 49.1365 26.6463H50.3245C55.4333 26.6463 57.9862 26.6463 59.5581 27.8162C60.7371 28.6952 61.568 29.9822 61.898 31.4401C62.336 33.39 61.355 35.8289 59.3901 40.7007L58.4122 43.1307C57.8449 44.538 57.6128 46.058 57.7342 47.5705C58.4302 56.1922 51.5934 63.4549 43.2357 62.9779L11.9649 61.181C8.54805 60.986 6.84111 60.887 5.29917 59.522C3.75423 58.1571 3.46324 56.7501 2.88426 53.9392C1.652 47.9593 1.70825 41.7854 3.04925 35.8289C3.89822 32.0851 7.47409 30.0691 11.1669 30.5491C20.9586 31.8091 29.8352 24.4924 30.8162 14.3497V14.3467Z" stroke="white" stroke-width="4" stroke-linecap="round" stroke-linejoin="round"/>
<path d="M17.0024 31.5001L16.5914 32.871C13.9309 41.7401 14.0744 51.2145 17.0024 59.999" stroke="white" stroke-width="4" stroke-linecap="round" stroke-linejoin="round"/>
</svg>
